<svg xmlns="http://www.w3.org/2000/svg" xmlns:xlink="http://www.w3.org/1999/xlink" width="512" zoomAndPan="magnify" viewBox="0 0 384 383.999986" height="512" preserveAspectRatio="xMidYMid meet" version="1.0"><defs><clipPath id="id1"><path d="M 57.027344 51.136719 L 327 51.136719 L 327 333.136719 L 57.027344 333.136719 Z M 57.027344 51.136719 " clip-rule="nonzero"/></clipPath><clipPath id="id2"><path d="M 265.523438 146.226562 L 283.386719 156.550781 C 310.425781 172.171875 325.019531 204.441406 319.144531 235.09375 C 312.597656 269.246094 283.152344 294.007812 248.507812 295.152344 L 247.09375 295.199219 L 246.378906 296.425781 C 225.90625 331.496094 180.261719 343.613281 145.109375 323.304688 L 57.195312 272.507812 L 122.089844 235.011719 L 103.230469 224.117188 C 76.957031 208.929688 62.578125 178.9375 66.914062 148.925781 C 72.121094 112.773438 102.96875 86.082031 139.355469 85.480469 L 140.703125 85.457031 L 141.441406 84.332031 C 162.847656 51.890625 206.914062 41.484375 240.558594 60.917969 L 326.859375 110.789062 Z M 99.324219 272.507812 L 155.644531 305.046875 C 177.191406 317.503906 204.804688 313.179688 221.574219 294.800781 L 224.140625 291.984375 L 220.570312 290.667969 C 216.609375 289.214844 212.777344 287.414062 209.117188 285.300781 L 143.152344 247.183594 Z M 233.703125 272.734375 L 234.273438 270.027344 C 238.128906 251.75 232.066406 232.542969 218.371094 219.839844 C 212.070312 213.992188 203.785156 209.570312 196.21875 205.566406 C 187.09375 200.734375 177.847656 196.105469 169.113281 190.578125 C 149.0625 177.886719 134.675781 162.296875 130.378906 138.269531 C 128.777344 129.296875 128.8125 120.082031 130.527344 111.128906 L 131.28125 107.183594 L 127.390625 108.164062 C 107.710938 113.128906 92.53125 128.742188 88.339844 148.644531 C 83.625 170.984375 93.992188 194.4375 113.765625 205.859375 L 219.65625 267.042969 C 223.242188 269.117188 227.074219 270.773438 231.046875 271.949219 Z M 153.039062 107.964844 L 152.328125 110.433594 C 146.828125 129.472656 152.769531 150.921875 167.300781 164.390625 C 173.597656 170.234375 181.882812 174.65625 189.445312 178.660156 C 198.570312 183.492188 207.8125 188.121094 216.550781 193.648438 C 236.601562 206.335938 251.003906 221.929688 255.289062 245.957031 C 256.6875 253.796875 256.835938 261.863281 255.699219 269.75 L 255.160156 273.5 L 258.835938 272.601562 C 305.183594 261.289062 314.191406 198.691406 272.859375 174.808594 L 166.972656 113.625 C 163.359375 111.535156 159.511719 109.878906 155.507812 108.699219 Z M 164.101562 89.191406 L 167.84375 90.6875 C 173.003906 92.742188 177.972656 95.71875 182.835938 98.414062 C 190.75 102.792969 198.589844 107.296875 206.417969 111.828125 C 218.699219 118.949219 230.890625 126.21875 243.179688 133.320312 L 244.457031 134.0625 L 284.730469 110.789062 L 230.019531 79.175781 C 209.792969 67.492188 184.109375 70.5 167.050781 86.4375 Z M 164.101562 89.191406 " clip-rule="evenodd"/></clipPath></defs><g clip-path="url(#id1)"><g clip-path="url(#id2)"><path fill="rgb(100%, 100%, 100%)" d="M 57.195312 51.136719 L 57.195312 333.136719 L 326.859375 333.136719 L 326.859375 51.136719 Z M 57.195312 51.136719 " fill-opacity="1" fill-rule="nonzero"/></g></g></svg>